<?xml version="1.0" encoding="UTF-8"?>
<svg width="1024" height="1024" viewBox="0 0 1024 1024" xmlns="http://www.w3.org/2000/svg">
  <!-- Background -->
  <rect width="1024" height="1024" fill="#000000"/>
  
  <!-- Shield outline (left side) -->
  <path d="M 200 300 Q 200 200 300 200 L 400 200 Q 500 200 500 300 L 500 500 Q 500 600 400 600 L 300 600 Q 200 600 200 500 Z" 
        fill="none" 
        stroke="#00FF00" 
        stroke-width="20" 
        stroke-linecap="round"/>
  
  <!-- Knee joint (central) -->
  <!-- Femur (upper leg bone) -->
  <ellipse cx="512" cy="400" rx="60" ry="30" fill="#00FF00"/>
  <rect x="452" y="400" width="120" height="80" fill="#00FF00" rx="30"/>
  
  <!-- Patella (kneecap) -->
  <ellipse cx="512" cy="480" rx="40" ry="25" fill="#00FF00"/>
  
  <!-- Tibia (lower leg bone) -->
  <ellipse cx="512" cy="520" rx="50" ry="25" fill="#00FF00"/>
  <rect x="462" y="520" width="100" height="60" fill="#00FF00" rx="25"/>
  
  <!-- Circuitry lines (right side) -->
  <!-- Line 1 -->
  <line x1="562" y1="480" x2="700" y2="420" stroke="#00FF00" stroke-width="8" stroke-linecap="round"/>
  <circle cx="700" cy="420" r="8" fill="#00FF00"/>
  
  <!-- Line 2 -->
  <line x1="562" y1="480" x2="720" y2="480" stroke="#00FF00" stroke-width="8" stroke-linecap="round"/>
  <circle cx="720" cy="480" r="8" fill="#00FF00"/>
  
  <!-- Line 3 -->
  <line x1="562" y1="480" x2="700" y2="540" stroke="#00FF00" stroke-width="8" stroke-linecap="round"/>
  <circle cx="700" cy="540" r="8" fill="#00FF00"/>
</svg> 